<svg viewBox="0 0 116 135" fill="none" xmlns="http://www.w3.org/2000/svg">
<rect width="90.3484" height="117.292" rx="15" transform="matrix(0.994758 -0.10226 0.123565 0.992336 0 16.2782)" fill="url(#paint0_linear_36_2)" fill-opacity="0.87"/>
<path d="M82.345 1.50105C88.3826 0.827444 93.9367 5.16188 94.7503 11.1823L107.5 105.526C108.314 111.546 104.079 116.973 98.041 117.646L30.6282 125.168C24.5905 125.841 19.0365 121.507 18.2229 115.486L5.47316 21.1427C4.65956 15.1223 8.8945 9.69572 14.9322 9.02212L82.345 1.50105Z" fill="url(#paint1_linear_36_2)"/>
<g filter="url(#filter0_d_36_2)">
<path d="M77.7483 7.93673C83.2371 7.32436 88.2863 11.2648 89.0259 16.7379L100.545 101.977C101.285 107.45 97.4348 112.383 91.9461 112.995L36.1361 119.222C30.6474 119.834 25.5983 115.894 24.8585 110.421L13.3392 25.182C12.5996 19.7089 16.4495 14.7757 21.9383 14.1633L77.7483 7.93673Z" fill="white"/>
</g>
<path d="M79.3729 18.0873C79.6207 19.7339 79.589 20.6238 79.2777 20.7572L77.395 30.5358L76.8144 33.2822C75.2845 41.2774 74.4214 47.6504 74.2253 52.4012C75.9147 57.0232 78.4247 62.6959 81.7555 69.4191C84.4711 74.8065 86.5526 79.2824 88 82.847C86.2639 82.8678 84.9913 82.942 84.1823 83.0696L81.2698 83.5287L78.2546 84.1305C72.1061 85.0998 68.6025 85.4836 67.7439 85.2818L66.4386 83.212L64.9452 83.1946C63.876 81.5932 62.742 79.2856 61.5431 76.2719C61.2945 75.7211 60.6204 74.2682 59.5206 71.9131L59.1259 75.8944C58.9174 80.5629 58.2613 84.459 57.1578 87.5829L52.1824 88.3673L47.5895 89.2177L46.7401 89.3517C44.5557 89.696 42.7635 89.8943 41.3634 89.9465C39.9757 90.0809 38.5912 89.9621 37.2101 89.5898L37.314 87.8035C36.3307 87.8742 35.3632 87.7739 34.4113 87.5026C34.6002 84.3544 35.4315 78.8713 36.9053 71.0535C37.1364 69.8372 37.5362 67.5406 38.1047 64.164C38.6733 60.7873 39.0953 57.813 39.3709 55.2411C38.0167 51.7461 36.4665 48.3242 34.7203 44.9754C33.0425 41.5314 30.7183 37.0937 27.7476 31.6623L24 24.9205C27.2674 24.0683 30.6001 23.3743 33.9979 22.8386C41.0364 21.729 44.9288 21.4525 45.6751 22.0091C45.9732 22.8892 46.2622 23.4336 46.5421 23.6424C46.9028 23.8383 47.2512 23.952 47.5872 23.9833C47.9917 23.9195 48.2873 23.9572 48.4738 24.0964C50.4365 29.4339 52.0673 33.3909 53.366 35.9675L55.0477 19.8994C58.4769 19.0216 65.6524 17.7218 76.5742 16C76.7972 17.4819 76.7997 18.3244 76.5818 18.5273L79.3729 18.0873ZM70.0856 18.2872C62.319 19.5116 57.6858 20.3684 56.1858 20.8578C55.8796 22.676 55.5228 25.8085 55.1153 30.2555C54.5635 36.4951 54.038 40.7078 53.5387 42.8936C52.0409 40.0956 49.857 35.2143 46.9869 28.2499L44.6759 22.7988C44.4208 22.7547 43.8825 22.7553 43.0611 22.8005C42.3206 22.8329 41.4245 22.9321 40.3728 23.0979L34.1838 24.0736C32.1612 24.3924 29.3483 24.9623 25.7448 25.7833C26.6398 27.3278 27.4353 28.7616 28.1314 30.0847C31.0277 35.0222 33.4795 39.4819 35.4867 43.4639C37.5624 47.3508 39.2616 51.2128 40.5844 55.0498C40.1208 59.6741 39.2362 65.6291 37.9308 72.9147C36.6814 80.0228 35.9565 84.5619 35.7561 86.532C37.0439 86.8347 38.7396 86.8202 40.843 86.4886C43.0274 86.1443 44.2814 85.9466 44.605 85.8955L46.3039 85.6277L51.7462 84.6433L53.4451 84.3755C54.1186 82.2465 54.6748 78.7875 55.1136 73.9985C55.1763 73.3143 55.3236 71.8162 55.5554 69.504C55.8681 67.1791 56.2988 65.0884 56.8477 63.2319L56.8663 63.3554C57.8422 64.8872 58.7805 66.7199 59.6814 68.8535C60.5698 70.9048 61.0916 72.1711 61.2469 72.6523C63.0733 77.0842 64.5335 80.1832 65.6274 81.9492L65.7488 81.9301C66.2714 82.1005 68.7979 81.8286 73.3284 81.1144L75.27 80.8083L81.1977 79.7474L82.2899 79.5752C82.8562 79.4859 83.2265 79.4697 83.4007 79.5265C82.6055 77.5448 81.5586 75.2656 80.2598 72.6891C79.0296 70.0174 78.1721 68.1719 77.6875 67.1527C74.2387 60.1952 71.7472 54.6461 70.213 50.5052C70.2962 47.2051 70.594 43.9554 71.1064 40.7562C71.6064 37.4746 72.359 33.3946 73.3642 28.5164C73.5952 27.3 73.9043 25.7763 74.2913 23.9453C74.6784 22.1144 75.0625 19.9889 75.4437 17.5689L75.5465 17.4263L70.0856 18.2872Z" fill="url(#paint2_linear_36_2)"/>
<path d="M39.3518 109.184C38.0266 109.334 37.0329 109.113 36.3706 108.519C35.7137 107.926 35.3045 106.908 35.143 105.468L35.0903 104.997L37.9605 104.672L38.0576 105.538C38.0952 105.873 38.1743 106.132 38.2949 106.313C38.4203 106.488 38.6095 106.561 38.8624 106.532C39.1263 106.502 39.3001 106.413 39.3837 106.264C39.4721 106.109 39.5012 105.897 39.471 105.628C39.4309 105.27 39.276 104.982 39.0064 104.762C38.7422 104.541 38.3114 104.25 37.7141 103.889L36.3513 103.058C35.7717 102.706 35.3438 102.292 35.0678 101.817C34.7917 101.342 34.6136 100.746 34.5335 100.031C34.4083 98.915 34.5965 98.0109 35.0981 97.3191C35.6051 96.6266 36.403 96.2186 37.4917 96.095C38.8224 95.9439 39.8042 96.1833 40.4373 96.8132C41.0758 97.4425 41.4703 98.428 41.6207 99.7699L38.6763 100.104L38.5967 99.3947C38.5437 98.9218 38.2972 98.7103 37.8574 98.7602C37.6374 98.7852 37.4826 98.8696 37.3929 99.0134C37.3026 99.1518 37.2689 99.3227 37.2917 99.5261C37.3145 99.7296 37.3829 99.9168 37.4967 100.088C37.6154 100.252 37.8667 100.458 38.2507 100.704L40.0776 101.875C40.7434 102.301 41.2636 102.768 41.638 103.277C42.0125 103.785 42.2484 104.474 42.3459 105.343C42.4137 105.948 42.3672 106.527 42.2065 107.08C42.0512 107.632 41.7443 108.099 41.2859 108.479C40.8268 108.855 40.1821 109.089 39.3518 109.184ZM46.1813 108.275L43.1797 95.583L46.0169 95.2609L47.7785 104.342L47.6335 95.0774L50.3388 94.7703L52.2113 103.873L51.8894 94.5942L54.7596 94.2684L54.6189 107.317L51.1383 107.712L49.6282 100.799L49.7197 107.873L46.1813 108.275ZM58.2878 106.9L56.845 94.0317L59.6492 93.7134L61.0921 106.582L58.2878 106.9ZM63.5981 106.297L62.1553 93.4289L67.9617 92.7698L68.2762 95.5744L65.4224 95.8984L65.6842 98.2329L68.4224 97.922L68.7286 100.652L65.9903 100.963L66.5508 105.962L63.5981 106.297ZM73.156 105.212L72.0258 95.1321L70.302 95.3278L69.9894 92.5396L76.3402 91.8186L76.6528 94.6068L74.929 94.8025L76.0592 104.883L73.156 105.212ZM83.3143 104.193C82.1046 104.33 81.1759 104.093 80.5282 103.482C79.8799 102.865 79.4818 101.896 79.3338 100.576L78.3266 91.5932L81.1473 91.2729L82.1508 100.223C82.178 100.465 82.2179 100.697 82.2707 100.92C82.3228 101.137 82.4064 101.311 82.5214 101.443C82.6364 101.574 82.8039 101.628 83.0238 101.603C83.2493 101.577 83.4038 101.49 83.4873 101.341C83.5703 101.187 83.6101 100.996 83.6068 100.768C83.609 100.539 83.5966 100.304 83.5694 100.062L82.5659 91.1119L85.3867 90.7917L86.3939 99.775C86.5419 101.095 86.3682 102.128 85.8728 102.875C85.3768 103.616 84.5239 104.056 83.3143 104.193ZM89.1623 103.395L87.7195 90.5269L90.5238 90.2086L91.9666 103.077L89.1623 103.395Z" fill="url(#paint3_linear_36_2)"/>
<defs>
<filter id="filter0_d_36_2" x="8.24823" y="2.87401" width="107.388" height="131.411" filterUnits="userSpaceOnUse" color-interpolation-filters="sRGB">
<feFlood flood-opacity="0" result="BackgroundImageFix"/>
<feColorMatrix in="SourceAlpha" type="matrix" values="0 0 0 0 0 0 0 0 0 0 0 0 0 0 0 0 0 0 127 0" result="hardAlpha"/>
<feOffset dx="5" dy="5"/>
<feGaussianBlur stdDeviation="5"/>
<feComposite in2="hardAlpha" operator="out"/>
<feColorMatrix type="matrix" values="0 0 0 0 0 0 0 0 0 0 0 0 0 0 0 0 0 0 0.25 0"/>
<feBlend mode="normal" in2="BackgroundImageFix" result="effect1_dropShadow_36_2"/>
<feBlend mode="normal" in="SourceGraphic" in2="effect1_dropShadow_36_2" result="shape"/>
</filter>
<linearGradient id="paint0_linear_36_2" x1="0.596274" y1="7.33905" x2="99.2574" y2="99.721" gradientUnits="userSpaceOnUse">
<stop stop-color="#08528E"/>
<stop offset="0.0001" stop-color="#104788"/>
<stop offset="1" stop-color="#430762"/>
</linearGradient>
<linearGradient id="paint1_linear_36_2" x1="7" y1="13.5" x2="110.353" y2="110.319" gradientUnits="userSpaceOnUse">
<stop stop-color="#0DB2FF"/>
<stop offset="1" stop-color="#D500FF"/>
</linearGradient>
<linearGradient id="paint2_linear_36_2" x1="32.3154" y1="24.3196" x2="65.9343" y2="88.7021" gradientUnits="userSpaceOnUse">
<stop stop-color="#0DB2FF"/>
<stop offset="1" stop-color="#D500FF"/>
</linearGradient>
<linearGradient id="paint3_linear_36_2" x1="33.017" y1="102.325" x2="86.2003" y2="79.5209" gradientUnits="userSpaceOnUse">
<stop stop-color="#0DB2FF"/>
<stop offset="0.497983" stop-color="#6B5EFF"/>
<stop offset="1" stop-color="#D500FF"/>
</linearGradient>
</defs>
</svg>
